<?xml version="1.0" standalone="no"?>
<!DOCTYPE svg PUBLIC "-//W3C//DTD SVG 1.1//EN" "http://www.w3.org/Graphics/SVG/1.1/DTD/svg11.dtd" >
<svg xmlns="http://www.w3.org/2000/svg">
<metadata>
Created by FontForge 20120731 at Fri Mar  4 13:39:54 2016
 By Ads
</metadata>
<defs>
<font id="iconfont" horiz-adv-x="1024" >
  <font-face 
    font-family="iconfont"
    font-weight="500"
    font-stretch="normal"
    units-per-em="1024"
    panose-1="2 0 6 3 0 0 0 0 0 0"
    ascent="896"
    descent="-128"
    x-height="792"
    bbox="0 -128 1037 896"
    underline-thickness="50"
    underline-position="-100"
    unicode-range="U+0078-E6BB"
  />
<missing-glyph horiz-adv-x="374" 
d="M34 0v682h272v-682h-272zM68 34h204v614h-204v-614z" />
    <glyph glyph-name=".notdef" horiz-adv-x="374" 
d="M34 0v682h272v-682h-272zM68 34h204v614h-204v-614z" />
    <glyph glyph-name=".null" horiz-adv-x="0" 
 />
    <glyph glyph-name="nonmarkingreturn" horiz-adv-x="341" 
 />
    <glyph glyph-name="x" unicode="x" horiz-adv-x="1001" 
d="M281 543q-27 -1 -53 -1h-83q-18 0 -36.5 -6t-32.5 -18.5t-23 -32t-9 -45.5v-76h912v41q0 16 -0.5 30t-0.5 18q0 13 -5 29t-17 29.5t-31.5 22.5t-49.5 9h-133v-97h-438v97zM955 310v-52q0 -23 0.5 -52t0.5 -58t-10.5 -47.5t-26 -30t-33 -16t-31.5 -4.5q-14 -1 -29.5 -0.5
t-29.5 0.5h-32l-45 128h-439l-44 -128h-29h-34q-20 0 -45 1q-25 0 -41 9.5t-25.5 23t-13.5 29.5t-4 30v167h911zM163 247q-12 0 -21 -8.5t-9 -21.5t9 -21.5t21 -8.5q13 0 22 8.5t9 21.5t-9 21.5t-22 8.5zM316 123q-8 -26 -14 -48q-5 -19 -10.5 -37t-7.5 -25t-3 -15t1 -14.5
t9.5 -10.5t21.5 -4h37h67h81h80h64h36q23 0 34 12t2 38q-5 13 -9.5 30.5t-9.5 34.5q-5 19 -11 39h-368zM336 498v228q0 11 2.5 23t10 21.5t20.5 15.5t34 6h188q31 0 51.5 -14.5t20.5 -52.5v-227h-327z" />
    <glyph glyph-name="uniE680" unicode="&#xe680;" 
d="M611 198h-46q-6 4 -6 14v96l-51 -1v-106q5 -28 42 -28h87v128h-26v-103zM456 301h-48h-2q-2 0 -7 -0.5t-9.5 -2t-11 -5.5t-12 -8.5t-10.5 -13t-8 -18.5q-2 -10 -2 -18t1.5 -14t2.5 -9t3 -6l2 -4q1 -4 5.5 -9.5t17.5 -12.5t29 -7h75v193l-26 1v-66zM456 198h-38
q-2 1 -6 1.5t-12.5 7.5t-11.5 19q-2 12 -1 17t3 12t8.5 14t17.5 7h40v-77v-1zM511 862q-98 0 -187.5 -38t-154.5 -103t-103.5 -154.5t-38.5 -188t38.5 -188t103.5 -154.5t154.5 -103t187.5 -38q79 0 153 24.5t133.5 69t104 104t69 133.5t24.5 153q0 56 -12.5 110.5
t-36.5 102t-57 89.5t-75 75t-90 57t-102 36.5t-111 12.5zM541 606q3 28 29 57.5t50 23.5q26 -6 44.5 -34t13.5 -57q-3 -20 -13.5 -39.5t-29 -32.5t-41.5 -10q-33 4 -45 29.5t-8 62.5zM441.5 702q26.5 0 45.5 -26.5t19 -64.5t-19 -64.5t-45.5 -26.5t-45.5 26.5t-19 64.5
t19 64.5t45.5 26.5zM241 486q0 3 1 8t5 18.5t10 23.5t17.5 19t25.5 11q29 2 51 -21.5t24 -46.5q11 -93 -53 -107q-23 -5 -41 4t-27 25t-12.5 34t-0.5 32zM731 162q-29 -68 -138 -47q-26 5 -26 7q-6 2 -15 3.5t-37 4t-51 -4.5q-24 -6 -50 -7.5t-39 -1.5l-13 1q-3 0 -7.5 0.5
t-16.5 4.5t-22 11.5t-21 24t-16 39.5q-5 20 -1.5 38t10 31.5t17.5 25t19.5 19t16 13.5t8.5 7q2 2 11 9.5t19.5 17t23.5 25t23 31.5q11 18 30 30.5t42.5 16.5t49.5 -9.5t46 -45.5q19 -27 48.5 -56.5t48.5 -45.5l20 -16l5 -6q4 -3 11.5 -15t11.5 -25.5t2.5 -35t-10.5 -44.5z
M720 351q-25 -1 -41 6.5t-22.5 21.5t-8.5 25.5t-2 29.5q0 89 65 89q16 0 29 -6t20.5 -15t13 -19.5t7.5 -19t2 -14.5v-7v-10q0 -4 -0.5 -12t-1.5 -13.5t-3.5 -13t-5.5 -13t-7.5 -11.5t-11 -9.5t-15 -6t-18.5 -2.5z" />
    <glyph glyph-name="uniE681" unicode="&#xe681;" 
d="M274 365q23 4 38 18t21.5 29t8.5 35t1 29.5t-2 20.5q-3 28 -31 57t-63 26q-19 -2 -33.5 -12.5t-22 -24.5t-12.5 -28t-6 -24l-1 -9q-5 -24 3.5 -53.5t34.5 -50.5t64 -13zM360 200q-8 -22 -3 -38q4 -15 14 -22t19 -7l8 1h46v91h-46q-10 -3 -18.5 -7.5t-13.5 -9.5t-6 -8z
M424 523q34 0 57.5 33t23.5 79.5t-23.5 79.5t-57.5 33t-57.5 -33t-23.5 -79.5t23.5 -79.5t57.5 -33zM617 516q21 -3 40 5.5t32 24.5t21.5 34.5t11.5 37.5q3 13 0 28t-10 28.5t-16.5 25t-21.5 19t-25 10.5q-12 3 -26 -2.5t-26 -16.5t-22.5 -24.5t-17 -28.5t-8.5 -28
q-5 -45 10.5 -76.5t57.5 -36.5zM763 238q-4 3 -10.5 8t-25.5 21t-36 32.5t-38 39.5t-36 44q-26 40 -59 56.5t-62 11.5t-53.5 -20.5t-37.5 -37.5q-16 -25 -38 -48t-39.5 -37.5t-19.5 -16.5q-1 -1 -14.5 -11t-26.5 -22t-28 -33t-19.5 -44t0.5 -54q18 -81 90 -103q12 -3 20 -4
q54 3 123 18q35 7 64 5.5t47 -5t18 -4.5q2 -1 5.5 -2t15 -3.5t23 -4.5t27.5 -3t31 -0.5t31 4.5t29 10.5t25 19t19 28.5q12 29 14 55t-4 43.5t-13.5 31t-14.5 19.5zM489 88h-114q-42 1 -60 42q-15 34 -8 72q4 12 10 22.5t12 17.5t13 12.5t12.5 8.5t10.5 4.5t8 2.5h2h69v69h45
v-251zM671 88h-114q-12 1 -21.5 5.5t-13.5 10.5t-7 13t-3 10v4v139h45v-113q2 -6 7.5 -11.5t10.5 -8.5l5 -3h46v136h45v-182zM854 436q0 11 -4.5 24.5t-14 29.5t-28.5 26.5t-44 10.5q-15 0 -27 -4t-20.5 -10t-14.5 -15t-9.5 -18.5t-5.5 -21t-3 -21t-1 -20.5q0 -16 1 -27.5
t6 -27t14.5 -25t27.5 -16t44 -6.5q14 1 25.5 4t19.5 10t14.5 13.5t9.5 17t5.5 17.5t3 18.5t1 16.5t0.5 14v10z" />
    <glyph glyph-name="uniE682" unicode="&#xe682;" 
d="M587 575v129q0 9 3 15.5t10 10t16 3.5h29q4 0 7 -0.5t5.5 -1.5t5 -3t4 -4t3 -4.5t2 -5.5t0.5 -7t1.5 -13t0.5 -14q0 -6 6 -6h170q24 0 24 -29v-35q0 -24 -24 -24h-54h-62h-54q-4 0 -7.5 -4t-3.5 -7q0 -23 1.5 -69.5t1.5 -72.5q0 -5 8 -5h50h59h50q12 0 17.5 -5.5
t5.5 -17.5v-347q0 -7 -2.5 -12.5t-8 -8t-12.5 -2.5h-270q-13 0 -21.5 8.5t-8.5 20.5v341q0 11 7.5 16.5t19.5 5.5h14q5 2 6 7v24v28v24q0 10 0.5 22.5t0.5 19.5v23zM774 232v45v45q0 18 -17 18h-112q-7 0 -12 -5t-5 -13v-181q0 -18 18 -18h111q6 0 9.5 2t5.5 5.5t2 9.5v32
v28v32zM152 692v4q0 3 -0.5 5t0 4.5t1.5 3.5q7 12 20 12h64h240q13 0 20 -6.5t7 -19.5v-224v-224q0 -8 -3 -14t-9 -8.5t-14 -2.5h-36q-13 0 -19.5 6.5t-6.5 18.5v298v73q0 16 -15 16h-149q-2 0 -4.5 -0.5t-4.5 -2t-3.5 -3t-2.5 -3.5t-1.5 -4.5t-0.5 -4.5v-364q0 -14 -6 -22
t-18 -8q-4 0 -16 0.5t-19 0.5q-24 -2 -24 23v94v208v144zM327 128q-2 -2 -4.5 -5t-4.5 -5.5t-4 -4.5q-43 -46 -106 -62q-10 -2 -19 -3.5t-19 -2.5q-19 -1 -20 17v54q1 9 6 14.5t16 8.5q71 18 98 84q11 35 11 52v311q0 8 3.5 10.5t12.5 2.5h60q9 0 11.5 -2.5t2.5 -11.5v-311
q0 -42 24 -78q16 -22 36.5 -36.5t46.5 -20.5l9 -3q16 -5 17 -23v-46q0 -11 -7 -17t-17 -5q-91 8 -150 79l-2 2q-1 1 -1 2z" />
    <glyph glyph-name="uniE686" unicode="&#xe686;" 
d="M305 344zM730 511zM596 638zM888 628h-125v136h-480v-136h-126q-16 0 -27.5 -11.5t-11.5 -28.5v-334h165v-57l183 -183h297v238h165v336q0 17 -11.5 28.5t-28.5 11.5zM329 718h388v-90h-388v90zM809 316h-46v92h-46v-348h-191q-14 0 -23.5 9.5t-13.5 23t-5.5 32.5
t-0.5 34.5t3 32t3 22.5t2 10q-4 -1 -9.5 -2.5t-22 -4t-32 -3.5t-34 0t-32 5t-22.5 14t-10 25v150h-46v-90h-46v157h572v-159v0zM842 531q-13 0 -22.5 9.5t-9.5 22.5t9.5 22t22.5 9t22.5 -9t9.5 -22t-9.5 -22.5t-22.5 -9.5zM662 402h-267v-47h267v47zM395 264h267v47h-267
v-47z" />
    <glyph glyph-name="uniE687" unicode="&#xe687;" 
d="M540 185h370v370h-369l-1 85h285v114h-285v85h-142v-284h-256v-370h199v-258zM284 279v175h484v-175h-484zM853 100q-35 0 -60 -25t-25 -60.5t25 -61t60 -25.5t60 25.5t25 61t-25 60.5t-60 25zM597.5 100q-35.5 0 -60.5 -25t-25 -60.5t25 -61t60.5 -25.5t60 25.5t24.5 61
t-24.5 60.5t-60 25zM170.5 100q-35.5 0 -60 -25t-24.5 -60.5t24.5 -61t60 -25.5t60.5 25.5t25 61t-25 60.5t-60.5 25z" />
    <glyph glyph-name="uniE688" unicode="&#xe688;" 
d="M161 749h700v-79h-700v79zM800 280v308h-578v-308h578zM306 509h411v-151h-411v151zM675 102q38 58 71 134l-84 31q-33 -91 -76 -165h-147q-36 97 -82 165l-77 -31q48 -72 77 -134h-215v-78h739v78h-206z" />
    <glyph glyph-name="uniE689" unicode="&#xe689;" 
d="M767 889v-151h-89q-49 0 -66.5 -20.5t-17.5 -61.5v-108h168l-23 -169h-145v-434h-175v434h-145v169h145v125q0 106 59.5 164.5t158.5 58.5q84 0 130 -7z" />
    <glyph glyph-name="uniE68A" unicode="&#xe68a;" 
d="M512 892q-103 0 -197 -40.5t-162.5 -108.5t-108.5 -162t-40 -197.5t40 -197.5t108.5 -162t162.5 -108.5t197 -40.5q69 0 135 18.5t122 51t103 79.5t79.5 103t51 122t18.5 135q0 52 -10.5 102t-29.5 95.5t-47 86.5t-62 75t-75.5 62t-86.5 47t-95.5 29.5t-102.5 10.5z
M644 384h-84v-305h-114v305h-76v105h76v62q0 70 26.5 104t97.5 34h84v-106h-52q-15 0 -23.5 -2t-12.5 -8.5t-5 -12.5t-1 -19v-52h95zM644 384z" />
    <glyph glyph-name="uniE68B" unicode="&#xe68b;" 
d="M919 99l-104 13l11 92l105 -13zM1024 656l-179 22l1 -415l78 -10zM664 584q-108 81 -278 81q-172 0 -278 -81q-108 -80 -108 -207q0 -129 108 -209q44 -33 99.5 -52.5t121.5 -25.5h113q132 11 222 78q107 80 107 209q0 63 -27 115t-80 92zM610 448l-54 -12
q-6 -1 -23 -13.5t-46 -36.5q-20 -16 -34 -28.5t-21.5 -21t-9.5 -14.5l-2 -29l-2 -17l5 -44l72 -1l-1 -22h-117l-105 -2l3 21l34 1q9 1 15.5 2t10.5 2.5t6 2.5q3 4 3 41v15l-1 30q-4 12 -57 77q-54 66 -73 82l-68 9v20q5 2 110 1q34 1 65 0.5t53 -1.5l-2 -17l-71 -7
q35 -52 101 -135q90 69 92 88l-61 9l-4 21h101l95 -1z" />
    <glyph glyph-name="uniE68C" unicode="&#xe68c;" 
d="M512 -101q-98 0 -187.5 38.5t-155 104t-104 155t-38.5 187.5q0 79 24.5 152.5t69.5 133.5t105 105t133.5 69.5t152.5 24.5q56 0 110.5 -13t102 -37t90 -57t75.5 -75.5t57 -90t37 -102t13 -110.5q0 -179 -118 -316q-113 -130 -281 -161q-43 -8 -86 -8zM512 817
q-88 0 -168.5 -34t-138.5 -92t-92 -138.5t-34 -168.5q0 -166 111 -289q107 -120 265 -141q29 -3 57 -3q59 0 115 15.5t103.5 43.5t87.5 68t68 87.5t43.5 103.5t15.5 115t-15.5 115t-43.5 103.5t-68 87.5t-87.5 68t-103.5 43.5t-115 15.5zM655 384zM526 384q0 54 38 92t91 38
q36 0 65.5 -17.5t47 -47.5t17.5 -65q0 -54 -38 -92t-92 -38q-35 0 -65 17.5t-47 47.5t-17 65zM369 384zM239 384q0 54 38 92t92 38q35 0 65 -17.5t47 -47.5t17 -65t-17 -65t-47 -47.5t-65.5 -17.5t-65 17.5t-47 47.5t-17.5 65z" />
    <glyph glyph-name="uniE68D" unicode="&#xe68d;" 
d="M512 832q-91 0 -174 -35.5t-143 -95.5t-95.5 -143t-35.5 -174t35.5 -174t95.5 -142.5t143 -95t174 -35.5q73 0 141 22.5t123 64t96.5 96.5t64 123t22.5 141q0 91 -35.5 174t-95.5 143t-142.5 95.5t-173.5 35.5zM550 286l-98 -130q-6 -8 -17 -10.5t-23 0t-20 8.5l-4 3v1
v-1l-60 44v1l-5 3q-13 10 -18.5 27.5t2.5 30.5l98 131q10 11 28.5 11t31.5 -10l4 -3l-26 -34q-16 5 -26 -9l-64 -84q-2 -3 -3 -7t-1 -7.5t1 -7.5t4 -7l60 -44q16 -6 27 8l63 84q11 15 -1 30l26 34l6 -4q8 -6 14 -16.5t6.5 -21.5t-5.5 -20zM546 469q5 7 13 8t15 -4l5 -4
q7 -4 8 -12t-4 -15l-107 -143q-5 -7 -13 -8t-15 4l-5 4q-7 4 -8 12t4 15zM716 505l-98 -130q-10 -12 -28.5 -12t-31.5 10l-4 3l26 35q7 -3 14.5 -0.5t12.5 8.5l63 84q11 15 -1 30l-60 43q-7 3 -14.5 0.5t-12.5 -8.5l-63 -84q-5 -7 -4.5 -15t5.5 -14l-26 -35l-5 4
q-14 10 -19 27.5t3 30.5l98 131q6 7 17.5 10t23 0.5t19.5 -9.5l4 -3l66 -48q13 -10 18.5 -27.5t-3.5 -30.5z" />
    <glyph glyph-name="uniE68E" unicode="&#xe68e;" 
d="M621 824h-229q-55 0 -105.5 -13t-93.5 -47q-8 -7 -15 -14t-13 -15t-11.5 -16t-9.5 -16t-7.5 -16.5t-6.5 -17t-4.5 -17.5t-2.5 -17.5t-1 -16.5q0 -68 50.5 -119.5t134.5 -51.5q10 0 35 3q0 -2 -1 -4q-10 -22 -10 -39q0 -10 2.5 -19t4.5 -15t8 -15t8.5 -12t9.5 -13
q-29 -2 -46.5 -3.5t-50.5 -6.5t-62 -15t-53 -25q-45 -26 -65 -62t-20 -70q0 -65 62 -110.5t177 -45.5q69 0 125.5 17.5t92.5 47t55 66t19 75.5q0 21 -5.5 40.5t-12.5 33t-21.5 29.5t-24.5 24.5t-29 24.5l-40 30q-29 23 -29 47q0 11 5.5 22t10 16t15.5 15q12 10 20 16
t19 16.5t17.5 18.5t14.5 20t12 24t7 27.5t3 32.5q0 29 -8 53.5t-22.5 43.5t-24 28.5t-24.5 20.5h69zM523 158q0 -52 -42.5 -84.5t-120.5 -32.5q-88 0 -142 37t-54 95q0 78 96 112q16 6 36 9.5t37 5.5t27.5 2.5t16.5 0.5q16 0 25 -1q70 -49 95.5 -77t25.5 -67zM435 508
q-32 -30 -76.5 -30t-77.5 34t-47 76.5t-14 82.5q0 24 5.5 44.5t18.5 36.5q9 11 22 19t27.5 12.5t28.5 4.5q43 0 76.5 -34.5t48.5 -79t15 -86.5q0 -10 -0.5 -18t-3 -19.5t-8.5 -22.5t-15 -20zM843 658v110h-56v-110h-111v-55h111v-111h56v111h111v55h-111z" />
    <glyph glyph-name="uniE68F" unicode="&#xe68f;" 
d="M410 616q-30 1 -48 -26t-13 -67q6 -39 30.5 -65t55.5 -27t46.5 23t10.5 64t-28.5 68.5t-53.5 29.5zM427 322q-45 1 -78 -24t-33 -59q0 -35 29.5 -59.5t74.5 -24.5q114 0 114 82q0 8 -2 16q-2 6 -5.5 12t-7 10.5t-11 10.5t-11.5 9t-15 10.5t-16 10.5q-18 6 -39 6zM514 896
q-70 0 -136 -18.5t-122 -51.5t-103 -80t-80 -103t-51 -122t-18 -136q0 -104 40 -198.5t108.5 -163t163 -109t198 -40.5t198 40.5t163 109t109 163t40.5 198.5q0 83 -26 161t-73 141t-110 110t-140.5 73t-160.5 26zM553 520q0 -46 -45 -80q-18 -15 -24 -24t-6 -21
q0 -14 44 -47q36 -26 47.5 -48t11.5 -57q0 -29 -19 -54.5t-56.5 -42t-85.5 -16.5q-68 0 -114.5 25.5t-46.5 66.5q0 46 42.5 82t105.5 36h14h14l-5 4l-3 4l-3 4q-2 1 -3.5 3.5t-2.5 4.5t-2 4.5t-1.5 4.5t-1 5t-0.5 6q0 14 8 29q-10 -1 -15 -1q-52 0 -82.5 32.5t-30.5 81.5
q0 23 11 44.5t30 38t45 26.5t54 10h150l-34 -36h-39q43 -24 43 -85zM768 529h-69v-69h-35v69h-69v35h69v70h35v-70h69v-35z" />
    <glyph glyph-name="uniE690" unicode="&#xe690;" 
d="M312 170q-3 2 -8 6l-8 10l-9 8q0 -7 3 -11.5t6.5 -7t7 -4t5.5 -1.5h3zM312 489q12 38 30.5 71.5t38 57t40 42.5t38.5 30t32.5 19t23.5 11l8 3q-10 3 -27 7.5t-67.5 14t-99.5 12.5q-87 6 -205 -13q-1 -13 -2 -36t4 -91t18.5 -131t48.5 -143.5t88 -141.5q2 -3 6 -7
q0 5 -1 29.5t-1 38.5v40q0 26 1.5 46t4.5 45.5t8 49.5t13 46zM899 208q-8 90 -34 183q-1 -3 -3 -8t-10.5 -20t-18.5 -30t-28 -35t-38.5 -37.5t-49.5 -35.5t-61 -31q-136 -54 -319 -49q44 -38 99 -67.5t105 -46t104.5 -28t93 -15.5t77 -5.5t51.5 -1t19 0.5q1 3 1.5 8t2.5 20
l4 32q2 15 4 37.5t3 43t0.5 43t-2.5 42.5zM312 170q0 -3 0.5 -7t6.5 -11t17 -7h1l-2 2l-1 1zM308 178q12 -1 32 -3t78.5 -0.5t112 11.5t119 39.5t113.5 77.5q127 127 129 353q0 53 -6 88q-6 1 -17 2t-45.5 2t-68 -0.5t-79.5 -8.5t-86.5 -19t-83 -35t-73.5 -54
q-43 -43 -71.5 -107t-39 -118t-14 -113.5t-2.5 -81t2 -33.5z" />
    <glyph glyph-name="uniE691" unicode="&#xe691;" 
d="M259 -44q-13 0 -23 7q-19 15 -15 38l45 262l-190 185q-17 17 -10 40t31 26l263 38l118 238q3 7 8 12t12 7.5t14 2.5q24 0 34 -22l118 -238l263 -38q11 -2 19.5 -9t11.5 -17q7 -23 -10 -40l-190 -185l45 -262q4 -23 -15.5 -37.5t-40.5 -2.5l-235 123l-235 -123
q-9 -5 -18 -5z" />
    <glyph glyph-name="uniE692" unicode="&#xe692;" 
d="M512 832q-73 0 -141.5 -22.5t-123.5 -64t-96.5 -96.5t-64 -123.5t-22.5 -141.5q0 -91 35.5 -174t95.5 -143t143 -95.5t174 -35.5t174 35.5t143 95.5t95.5 143t35.5 174t-35.5 174t-95.5 143t-143 95.5t-174 35.5zM717 339h-160v-160q0 -12 -6 -22t-16.5 -16t-22.5 -6
q-9 0 -17.5 3.5t-14.5 9.5t-9.5 14t-3.5 17v160h-160q-18 0 -31.5 13.5t-13.5 31.5q0 9 4 17.5t10 14.5t14 9.5t17 3.5h160v160q0 18 13 31.5t32 13.5q12 0 22.5 -6t16.5 -16.5t6 -22.5v-160h160q18 0 31.5 -13t13.5 -31.5t-13.5 -32t-31.5 -13.5z" />
    <glyph glyph-name="uniE695" unicode="&#xe695;" 
d="M957 484q-1 5 -19 10t-45.5 9t-60.5 8t-65 7t-59 5.5t-43 4t-17 1.5q-111 279 -138 279q-25 0 -135 -272l-3 -7q-300 -22 -309 -45q-5 -11 52.5 -66t112 -102t58.5 -50l-41 -193q-20 -107 -11 -114q17 -12 276 145l143 -86q123 -70 134 -59q15 16 -42 263q0 1 -28.5 -2
t-82 -6.5t-102.5 -3.5q-44 -1 -96 0.5t-82 3.5l-31 2l258 191q-80 14 -141 20q-48 4 -121 7l-33 3q16 4 86 8t138 2q42 -1 89 -6t72 -10l26 -4l-257 -183q56 -9 103 -11q40 -1 89 -1h78l30 1l-6 33l122 107q105 96 101 111zM957 484z" />
    <glyph glyph-name="uniE696" unicode="&#xe696;" 
d="M512 830q-89 0 -172 -35t-143 -96q-61 -61 -95.5 -143.5t-34.5 -170.5q0 -122 59.5 -223.5t160.5 -162.5t225 -61q91 0 171.5 34.5t143.5 96.5q82 83 114.5 200t0.5 233q-40 144 -158.5 236t-271.5 92zM788 452q-1 -5 -6.5 -12t-15.5 -15l-116 -106l4 -21q-40 0 -74 1
t-63 1q-33 2 -30 12q1 6 12 12q24 18 45.5 33t40.5 27.5t36 21.5q14 8 19.5 13.5t3.5 8.5t-8 4.5t-16 1.5l-7 1q-31 3 -67.5 3.5t-68 -1t-58.5 -4t-43.5 -5t-17.5 -3.5q64 -3 111 -6t72 -5q10 0 15 -1t5 -4l-17 -11l-4 -3l-35 -25q-55 -38 -82 -59t-27 -25q122 -19 259 3
l42 6l-39 -20l20 -112q0 -1 3 -20v-8q0 -5 -1 -6q-6 -5 -29 10l-8 4l-131 79l-138 -82l-2 -1q-23 -13 -27 -10q-1 1 -1 6t1 12.5t2 11.5v3l28 157l-115 104l-3 2q-2 3 -11 12t-9 15q1 5 33 7l11 1l147 18l64 129q13 32 20 32q2 1 7 -4l4 -6q2 -4 5 -12l3 -6l1 -1l66 -132
l163 -20l25 -5z" />
    <glyph glyph-name="uniE697" unicode="&#xe697;" 
d="M260 740q0 -41 -29.5 -69.5t-76.5 -28.5q-45 0 -74 28.5t-29 69.5q0 43 29 71t76 28t74.5 -28t29.5 -71zM57 -69v633h197v-633h-197zM371 361q0 89 -4 203h170l10 -88h4q61 103 194 103q103 0 165.5 -69t62.5 -204v-375h-197v351q0 137 -100 137q-72 0 -101 -74
q-6 -12 -6 -49v-365h-198v430v0z" />
    <glyph glyph-name="uniE698" unicode="&#xe698;" 
d="M0 896zM512 876q-100 0 -191 -39t-157 -105t-105 -157t-39 -191t39 -191t105 -157t157 -105t191 -39t191 39t157 105t105 157t39 191q0 67 -18 130.5t-49.5 117.5t-77 99.5t-99.5 77t-117.5 49.5t-130.5 18zM392 180h-100v321h100v-321zM341 540q-23 0 -37 14.5t-14 35.5
t14.5 35t38 14t38 -14t14.5 -35q0 -22 -14.5 -36t-39.5 -14zM755 180h-99v178q0 69 -51 69q-36 0 -51 -37q-2 -5 -2.5 -11t-0.5 -14v-185h-100v218q0 46 -2 103h86l5 -45h2q7 12 19 23t33.5 20t46.5 9q51 0 82.5 -35t31.5 -103v-190z" />
    <glyph glyph-name="uniE699" unicode="&#xe699;" 
d="M720 263l-5 -2zM630 303q-15 -5 -36.5 -13.5t-44.5 -13.5q-12 -3 -21.5 -4t-16 -1.5t-12.5 -0.5t-14.5 -0.5t-18.5 -1.5q-54 -8 -51 -19q0 -2 2 -3q4 -4 27 -12q2 0 10 -2.5t10 -3.5t9.5 -3.5t11 -3t11 -2.5t12.5 -2t12 -1t13.5 -0.5t14 1t14.5 1.5q61 12 107 61
q6 6 11 11.5t7 7t3 3t2 2.5q5 9 -17 8t-45 -8zM870 373q40 28 63.5 71t23.5 94q0 83 -59 141.5t-142 58.5q-19 0 -37.5 -3.5t-35 -10t-31.5 -15.5q-25 76 -95 114.5t-148 17.5t-119.5 -89.5t-24.5 -146.5q-13 0 -26 -1.5t-26 -5.5q-80 -21 -121.5 -93t-20.5 -152
q17 -62 66 -102.5t111 -45.5q-6 -16 -8.5 -32.5t-2.5 -33.5q0 -83 58.5 -141.5t141.5 -58.5q61 0 111 33.5t73 87.5q57 -52 134 -52q83 0 142 59t59 142q0 20 -4 39.5t-11.5 37t-18 33.5t-24 29.5t-28.5 24.5zM739 341q-17 -22 -37 -69q-8 -21 -14.5 -33t-20.5 -29.5
t-37.5 -28.5t-55.5 -16q-15 -3 -29 -3.5t-26.5 1.5t-22.5 4t-20.5 7t-17 8.5t-16 10.5t-14 10.5t-13.5 11.5t-12 10q-13 11 -46 30l-6 3l-6 3q-2 1 -4 3.5t-1 4.5q0 4 2 5t8 0.5t8 -0.5q9 0 16.5 1.5t18.5 5t24 9.5q16 8 29 16.5t21 12.5t21 7q5 1 12.5 1t13.5 -1t13 -1
t10 1q4 0 11 4.5t16.5 9t20.5 6.5q13 2 21.5 1.5t27 -2.5t32.5 -2q47 0 72 14q6 4 7 -3q1 -5 -6 -13z" />
    <glyph glyph-name="uniE69A" unicode="&#xe69a;" 
d="M512 832q-73 0 -141.5 -22.5t-123.5 -64t-96.5 -96.5t-64 -123.5t-22.5 -141.5q0 -91 35.5 -174t95.5 -143t143 -95.5t174 -35.5t174 35.5t143 95.5t95.5 143t35.5 174q0 46 -9 90.5t-26 84t-41.5 76t-54.5 66.5t-66.5 54.5t-76 41.5t-84 26t-90.5 9zM621 632
q16 -7 31 -16t29 -21q12 -9 22 -20q25 -24 42 -55q4 -8 8 -15l-132 -135v262zM488 651q15 2 30 2q34 0 68 -9q9 -3 16 -5v-191q-2 3 -47.5 49.5t-90.5 90.5l-44 45q16 7 33.5 11.5t34.5 6.5zM311 551q3 4 6.5 7.5t6.5 7.5t7 7q12 13 26 23.5t28 19.5q7 4 15 8l133 -135h-258
q4 8 7.5 16t8 16t10 15.5t10.5 14.5zM256 354q-2 15 -2 30q0 35 9 70q3 9 5 16h188q-3 -2 -48.5 -48.5t-89.5 -91.5l-44 -45q-14 33 -18 69zM354 174q-12 10 -22 20q-13 13 -23.5 27t-18.5 29q-2 2 -3 4.5t-2.5 5t-2.5 5.5l132 135v-263q-16 7 -31 16.5t-29 20.5zM547 117
q-15 -2 -30 -2q-34 0 -68 9q-4 2 -8 3l-8 2v191q1 -1 11.5 -12t26.5 -27.5t35.5 -36t38.5 -39t35 -35.5l26 -26l9 -9q-8 -4 -16 -6.5t-17 -5t-17.5 -4t-17.5 -2.5zM723 216q-5 -6 -10 -11.5t-10 -11.5q-24 -24 -55 -42l-14 -8l-133 135q2 0 17 -0.5t38 -0.5h50h54
q27 0 49 0.5t36 0.5h14q-7 -17 -16 -32.5t-20 -29.5zM772 314q-1 -4 -2.5 -8t-2.5 -8h-188q3 2 48.5 48.5t90.5 91.5l44 45q13 -33 17 -69q1 -8 1.5 -15.5t0.5 -14.5q0 -35 -9 -70z" />
    <glyph glyph-name="uniE69B" unicode="&#xe69b;" 
d="M398 568l-340 -317q-21 102 -17.5 169t38.5 148h319zM301 434l-16 -465q-91 62 -134 109.5t-76 129.5zM328 270l317 -340q-102 -21 -169 -17.5t-148 37.5v320zM462 173l465 -16q-62 -91 -109.5 -134t-129.5 -76zM626 200l340 317q21 -102 17.5 -169t-37.5 -148h-320z
M723 334l16 465q91 -62 134 -109.5t76 -129.5zM696 498l-317 340q102 21 169 17.5t148 -38.5v-319zM562 595l-465 16q62 91 109.5 134t129.5 76z" />
    <glyph glyph-name="uniE69D" unicode="&#xe69d;" 
d="M280 454q10 1 19.5 2t15.5 2l6 1q101 23 179 14q3 0 11 -1t14 -2h6v1q0 18 -4.5 44t-8 43t-12.5 53t-11 45q-5 25 -14.5 49.5t-15 35.5t-9.5 16q-9 13 -25 22.5t-28 13.5l-11 3q-30 7 -61.5 -0.5t-48.5 -18.5l-17 -11q-21 -13 -33.5 -31t-16 -35t-3 -32t2.5 -24t3 -9h-12
q-28 0 -48.5 -7t-31 -17t-16 -24t-6 -25.5t1 -24t2.5 -17t2 -6.5q10 -25 30.5 -42.5t38.5 -22.5q26 -5 101 5zM531 471v-1q5 1 16 4q78 23 166 33q64 8 98 28q8 6 15.5 13t12 13t8 11t5.5 8l2 3q14 32 11 60.5t-10 45.5t-10 19q-43 63 -110 39q-1 -1 -7.5 -4t-12.5 -6v11
q0 5 -0.5 13t-1.5 11q-6 24 -21 38t-33.5 17t-32 2.5t-23.5 -2.5q-46 -15 -65 -50q-2 -5 -4 -9t-3 -8.5t-2 -7.5t-2 -8t-1 -7t-0.5 -7.5t-1 -7t-0.5 -8t-1 -8.5v-34v-38q0 -11 0.5 -33.5t1.5 -37t2 -34t4 -36.5v-6v-5v-6v-5zM518 457q-2 0 -7 -0.5t-10 -0.5h-11h-7
q-114 -5 -204 -52q-12 -5 -25 -13.5t-23 -17.5t-18 -19q-1 -1 -6 -8.5t-7.5 -11t-7 -12t-6.5 -15.5t-4 -16.5t-1 -19.5q-2 -7 -2 -18.5t4 -30t13.5 -34t31 -27.5t52.5 -14h4h4h6h6h6q2 0 4 0.5t3 0.5h1q0 -1 0.5 -3t1.5 -5l2 -6q0 -6 4 -19t20 -34.5t39 -33.5q13 -10 41 -11
t62 13t54 44q6 2 14.5 24t9.5 44q6 30 -8 113q-5 19 -14 52t-12.5 48t-7 38.5t-2.5 44.5zM873 452h-1q-1 1 -3 2.5t-5 2.5t-7.5 3t-9.5 4t-11.5 4t-13.5 3q-1 1 -6 2t-9 1.5t-11.5 2t-16 2t-18.5 1t-22 0.5t-24 -1q-44 -3 -99.5 -10.5t-81.5 -9.5q2 -2 2.5 -6.5t1.5 -10
t1 -8.5q9 -34 20 -70t22.5 -69t23.5 -63q24 -52 32 -64q12 -10 19 -14.5t23.5 -9.5t35.5 -5q10 0 25.5 4t34.5 12.5t31 27t10 43.5q0 1 -2 6l-2 12q-2 5 -3.5 11t-2.5 9l-2 4h2h4l6 -2h8q3 -1 5 -1h1q4 1 12 0t19.5 3t22 9.5t21 19t16.5 31.5q10 18 -1 60.5t-47 63.5z" />
    <glyph glyph-name="uniE69E" unicode="&#xe69e;" 
d="M512 896q-139 0 -257 -68.5t-186.5 -186.5t-68.5 -257t68.5 -257t186.5 -186.5t257 -68.5t257 68.5t186.5 186.5t68.5 257t-68.5 257t-186.5 186.5t-257 68.5zM562 212q-17 1 -31.5 6.5t-23 10.5t-24 15.5t-24.5 16.5q-9 -47 -17 -79t-21.5 -69t-33 -64.5t-45.5 -46.5
q-7 35 -5.5 76.5t5 71t12 67t15.5 64.5t16.5 63t15.5 63q-13 22 -16 51.5t4.5 56.5t22 49.5t37 30t49.5 -1.5q23 -9 30.5 -29.5t3 -45.5t-13.5 -54t-17 -57t-10 -52t10 -41.5t41 -23.5q36 -7 66.5 9.5t50.5 47.5t31.5 72.5t12.5 82.5t-10 79t-34 60q-32 33 -74.5 46.5t-84 8
t-81 -26.5t-68 -52.5t-42.5 -75t-6 -90.5q2 -14 11 -30t15.5 -27t6 -29t-13.5 -41q-112 25 -107 176q3 70 41 129t95.5 93t122.5 41q60 7 116.5 -4t101.5 -37t75.5 -69.5t38.5 -98.5q5 -52 0 -102.5t-26.5 -95.5t-51 -78.5t-73 -51.5t-93.5 -14z" />
    <glyph glyph-name="uniE69F" unicode="&#xe69f;" 
d="M445 224q-26 -128 -58 -209.5t-96 -126.5q-8 45 -6 98q1 27 2.5 50t3.5 42q4 39 15 88q10 48 20 83q9 32 22 83q3 9 5 18t4 17.5t4 16t3.5 15t2.5 13.5q-20 37 -20 86q0 16 2 31.5t5.5 30t9.5 27.5q16 41 52 62.5t79 5.5q20 -8 31.5 -23.5t13.5 -36.5q4 -43 -14 -94
l-33 -102q-15 -51 -4 -89q13 -39 62 -49q68 -14 121.5 38.5t74 129.5t11 160.5t-54.5 127.5q-12 13 -25.5 23.5t-28 18.5t-30.5 14.5t-33 9.5q-68 16 -132 -4q-32 -11 -61.5 -26.5t-55.5 -36.5q-54 -41 -81 -107t-15 -138q2 -10 5.5 -20t9.5 -20q12 -21 21 -34q2 -4 3.5 -8
t2.5 -8.5t1.5 -10t-0.5 -11.5q-1 -24 -18 -53q-146 33 -140 227q3 69 29.5 127t76.5 106q100 95 230 111q163 17 287.5 -57t143.5 -217q16 -111 -17 -216t-112.5 -170t-186.5 -57q-22 2 -40 9q-9 3 -16.5 6.5t-13.5 6.5q-12 7 -31 21q-7 4 -12.5 8t-10.5 7t-8 6z" />
    <glyph glyph-name="uniE6A0" unicode="&#xe6a0;" 
d="M512 896q-139 0 -257 -68.5t-186.5 -186.5t-68.5 -257t68.5 -257t186.5 -186.5t257 -68.5t257 68.5t186.5 186.5t68.5 257t-68.5 257t-186.5 186.5t-257 68.5zM782 225q-8 -4 -21.5 5.5t-27.5 29.5q-9 -41 -48 -74q19 -7 30.5 -18.5t11.5 -24.5q0 -14 -14 -26t-37.5 -19
t-50.5 -7q-38 0 -67 12.5t-34 30.5h-13q-6 -18 -34.5 -30.5t-66.5 -12.5q-43 0 -73 15t-30 37q0 28 42 43q-39 33 -48 74q-30 -43 -49 -35q-13 7 -11 38.5t19 69.5q5 12 10.5 22.5t11.5 19t12 15.5t12 11.5t11 6.5v8q0 12 3 22t9 19v3q0 12 5 19q2 39 16 73t37 59.5t57 40
t74 14.5q81 0 130 -53t53 -133q3 -4 4.5 -9.5t1.5 -9.5v-3q3 -5 6 -12t4 -14t1 -15v-7q9 -4 19 -14t20 -26t19 -36q10 -25 14.5 -48.5t2.5 -39.5t-11 -21z" />
    <glyph glyph-name="uniE6A1" unicode="&#xe6a1;" 
d="M116 314q-25 -59 -28.5 -108.5t16.5 -59.5q14 -7 34.5 7.5t40.5 45.5q16 -66 76 -116q-31 -12 -48.5 -29t-17.5 -38q0 -33 46 -57t112 -24q38 0 72 9t56 24.5t28 34.5h19q9 -29 53 -48.5t103 -19.5q65 0 111 24t46 57q0 14 -8 26.5t-23 22.5t-35 18q60 50 76 116
q21 -31 41 -45.5t34 -7.5q13 7 16 32t-4.5 61t-23.5 75q-10 23 -21.5 43.5t-23 35.5t-23 25t-22.5 14q1 6 1 12q0 36 -18 64v4q0 9 -2 16.5t-5 14.5q-3 60 -23.5 113t-56 92t-88 61.5t-114.5 22.5q-83 0 -146.5 -39t-97.5 -104t-38 -146q-1 -2 -1.5 -3.5t-1 -3.5t-1.5 -4
t-1.5 -3.5t-0.5 -3.5t-0.5 -4t-0.5 -4v-5v-2v-2q-8 -14 -13 -30t-5 -34q0 -3 0.5 -6t0.5 -6q-21 -8 -45.5 -40t-44.5 -78z" />
    <glyph glyph-name="uniE6A2" unicode="&#xe6a2;" 
d="M511 544q-29 -32 -44.5 -73t-15.5 -86q0 -91 60 -160q60 69 60 160t-60 159zM511 832q-73 0 -141.5 -22.5t-123 -64t-96 -96t-64 -123t-22.5 -141.5q0 -90 35.5 -173t95 -142.5t142.5 -95t174 -35.5q72 0 140.5 22.5t123.5 64t96 96t63.5 123t22.5 140.5q0 91 -35 174
t-95 142.5t-143 95t-173 35.5zM149 223q-63 69 -63 162q0 90 59 158t147 81v-185q0 -6 -0.5 -14.5t-8 -33.5t-21 -49.5t-43.5 -57.5t-70 -61zM329 142q-30 0 -58 7t-54 20q85 62 109 148q40 -89 118 -145q-54 -30 -115 -30zM513 223l-1 1l-1 1l-1 -1q-16 9 -29.5 19.5
t-33.5 31t-35 42.5t-28 55t-18 70v182q87 -14 145 -80q58 66 145 80v-185q0 -62 -53 -132q-35 -46 -90 -84zM694 142q-30 0 -58.5 7t-53.5 21q84 62 108 147q40 -89 119 -146q-54 -29 -115 -29zM730 442v182q43 -6 81 -27.5t65.5 -53t43.5 -73t16 -85.5q0 -90 -59 -159
q-18 10 -36.5 24.5t-44.5 40t-44 65.5t-22 86z" />
    <glyph glyph-name="uniE6A3" unicode="&#xe6a3;" 
d="M335 539v-12q29 -181 157 -249q-5 10 -8.5 20t-7 20.5t-5.5 21.5t-3 22t-1 23q0 75 39 133q40 -58 40 -133q0 -65 -31 -119q1 0 0.5 -0.5t0.5 -0.5q73 41 108.5 104t51.5 158v103q-14 -2 -27.5 -5t-26 -7t-24.5 -10t-23 -13t-21 -15.5t-19 -18t-17 -19.5t-15 -22
q-60 94 -164 109q-1 -12 -2.5 -49t-1.5 -41v0zM770 544v-14q0 -180 160 -256q14 28 22 55.5t8 55.5q0 86 -57.5 155.5t-132.5 86.5v-83zM260 524v103q-42 -7 -78.5 -29t-62.5 -54t-40.5 -73t-14.5 -86q0 -34 8.5 -66t24.5 -59q163 88 163 264zM307 391q-46 -116 -164 -187
q69 -66 162 -66q91 0 159 62q-102 62 -157 191v0zM718 396q-54 -124 -171 -195q68 -63 159 -63q96 0 165 68q-106 70 -153 190zM718 396z" />
    <glyph glyph-name="uniE6A5" unicode="&#xe6a5;" 
d="M417 283q-13 5 -27 0t-22 -17q-5 -8 -5.5 -16.5t4 -16t12.5 -10.5q9 -4 18.5 -3.5t18 6t13.5 13.5t5.5 17t-4.5 16t-13 11zM459 300q-4 1 -7.5 0.5t-6.5 -2.5t-5 -5q-3 -5 -1.5 -9.5t6.5 -6.5q12 -5 19 7q7 11 -5 16zM512 829q-45 0 -89.5 -9t-84 -26t-75.5 -41.5
t-65.5 -54t-54 -65.5t-41.5 -75.5t-26 -84t-9 -89.5q0 -90 35.5 -172.5t95 -142t142 -95t173 -35.5t172.5 35.5t141.5 95t95 142t35.5 172.5q0 170 -113 296q-109 122 -270 144q-31 5 -62 5zM457 115h1q-70 0 -132.5 20.5t-103.5 61.5t-41 93q0 87 98 185q63 62 126 87
t90 -3q24 -24 8 -77q-4 -12 9 -9q6 1 6 2q52 21 91 21.5t56 -22.5q17 -24 0 -66q-1 -4 -1.5 -7t2 -5t4 -2.5t6.5 -1.5q33 -11 56.5 -33.5t23.5 -56.5q0 -32 -22 -64.5t-59.5 -60t-95 -45t-122.5 -17.5zM705 461q7 23 -9 41t-39 13q-6 -2 -11.5 0t-9.5 6t-5 10q-2 9 3 16.5
t13.5 9.5t17.5 2t17.5 -2t16.5 -5t15.5 -8.5t14.5 -12.5q32 -36 17 -83q-2 -6 -6 -10t-9.5 -5t-11.5 1q-9 3 -13 11t-1 16zM831 420q-2 -6 -7 -10.5t-11.5 -6t-12.5 0.5q-10 3 -15 12.5t-2 19.5q7 21 6.5 42t-8.5 41.5t-23 37.5q-12 13 -26 22t-29 13.5t-31.5 5.5t-31.5 -3
q-11 -2 -19.5 3.5t-10.5 16.5q-2 6 0 12.5t7 11t12 6.5q15 3 30 3.5t29.5 -1.5t29 -6.5t28 -11.5t26 -16.5t23.5 -21.5q32 -35 41.5 -81.5t-5.5 -89.5zM432 413q-82 -8 -136 -51.5t-48.5 -97.5t67 -86t143.5 -24t136 51.5t48.5 97.5t-67 86t-143.5 24zM528 244
q-17 -37 -58.5 -55t-82.5 -4q-39 12 -54 46t3 69q11 22 33 38t47.5 21t52.5 -1q40 -10 57.5 -43.5t1.5 -70.5z" />
    <glyph glyph-name="uniE6A6" unicode="&#xe6a6;" 
d="M153 533q17 -12 42 -30q8 -6 15 -11t14 -11q12 -9 24 -20q11 -11 29 -30q27 -26 27 -63q-1 -19 -5 -40.5t-13 -46.5q-2 -8 -4.5 -14.5t-4.5 -11.5q0 -2 -1 -5l-2 -4l-2 -6l-2 -4q-5 -9 -10 -21l-15 -30q-9 -20 -23 -48t-34 -73l-123 73q37 34 71 67l6 6l6 6l5 5l6 6
q3 3 5 6q15 15 27 29q13 13 23 27q2 3 4.5 6t4.5 6t3.5 6t2.5 6q11 21 7.5 38t-12.5 28q-10 13 -28 23l-93 56zM945 553q8 -42 12 -96q3 -46 3 -112q0 -21 -1.5 -44.5t-3.5 -49t-5 -52.5q-4 -42 -20 -69t-39 -44.5t-51 -25.5t-57 -11q-66 -5 -149 14l17 62l66 -14
q23 -2 41 1q9 2 17 4.5t15 6.5q14 7 24 15.5t16 18.5q16 22 21 51v307q0 44 -24 68.5t-69 30.5q-22 3 -48.5 2t-57.5 -7q-62 -10 -138 -36l46 -14q-1 -2 -2 -4.5t-2.5 -5t-3.5 -5.5l-5 -4q-11 -9 -26 -27h277v-51h-157v-101h157v-53h-32l55 -135l-87 -36l-17 57
q-7 -5 -17 -11.5t-22 -14.5q-8 -6 -17 -11t-19 -10t-22 -9q-34 -14 -77.5 -24t-96.5 -8q-10 0 -19 0.5t-16.5 2t-14.5 4.5q-20 8 -34 21q-7 6 -12 13.5t-9 16.5q-7 16 -11 35q-8 41 0 95l12 3h92q-1 -8 -3 -19q-2 -12 -4 -22q0 -6 -0.5 -11t0.5 -10q0 -10 5 -18q2 -3 6 -5.5
t11 -3.5q13 -3 29 -3q7 -1 14 -1h15h21h7v104h-180v53h180v101h-62q-15 -14 -27 -28q-3 -4 -5.5 -7.5t-5 -6.5t-5 -6.5t-5.5 -5.5q-5 -7 -10 -13.5t-10 -13.5l-47 41q6 6 12.5 13.5t12.5 15.5q12 16 23 33l22 34q11 16 18 30q-13 -5 -26 -11q-6 -3 -13 -5.5t-14 -5.5
q-13 -17 -28 -33t-31 -32q0 -2 -12.5 4.5t-27.5 14.5q-18 9 -40 21q31 26 54 63q24 37 41 72q19 40 34 83l112 -30q-1 -4 -3 -9t-4 -9q-1 -2 -2.5 -4.5t-2.5 -4.5t-2 -5t-3 -5q-2 -6 -5 -11.5t-6 -11.5q84 23 149 32q32 5 60.5 7t53.5 1q49 -1 84 -10t59 -22q56 -30 72 -84
v0zM641 214q8 3 16.5 6.5t16.5 7.5q16 7 29 18l-13 48l43 14h-92v-94v0zM221 563q-6 0 -11.5 0.5t-10.5 1.5t-10 3q-15 5 -26 15l-7 7q-3 3 -5.5 6.5t-4.5 8.5q-6 12 -6 27q0 7 1.5 14t4.5 13q6 13 17 22q6 5 12.5 8.5t13.5 6.5q15 5 32 5q5 0 10 -0.5t10 -1.5t10 -3
q14 -5 25 -15q4 -3 7 -6.5t5.5 -7.5t5.5 -8q6 -13 6 -27.5t-6.5 -27t-17.5 -21.5q-2 -3 -5 -5t-6.5 -3.5t-6.5 -3.5t-7 -3q-5 -2 -10 -3t-10 -1.5t-10 -0.5v0zM221 563z" />
    <glyph glyph-name="uniE6A7" unicode="&#xe6a7;" 
d="M512 896q-104 0 -199 -40.5t-163.5 -109t-109 -163.5t-40.5 -199q0 -139 68.5 -257t186.5 -186.5t257 -68.5t257 68.5t186.5 186.5t68.5 257q0 212 -150 362t-362 150zM276.5 650q26.5 0 45 -17t18.5 -40q0 -12 -5 -22.5t-13.5 -18.5t-20.5 -12.5t-25 -4.5q-17 0 -32 8
t-23.5 21t-8.5 29q0 23 19 40t45.5 17zM329 306l-7 -24q-3 -8 -8.5 -20t-11 -23t-20.5 -42t-32 -69l-97 60l6 6q4 4 15.5 15t22.5 22l25 25q15 15 26 27.5t21 25.5t14 23q21 42 -22 70l-4 2l-74 47l40 61q42 -31 56 -42.5t42 -40.5q21 -20 22 -52t-14 -71zM856 238
q-13 -121 -154 -123q-51 -1 -95 12l12 51l45 -12q20 -1 35.5 2.5t23.5 10.5t13.5 16t7 18t2 16.5t-0.5 12.5l-1 4v251q0 70 -60.5 81t-182.5 -34l42 -5v-2q-3 -10 -5.5 -16.5t-8.5 -15t-13 -8.5h201v-54h-109v-55h109v-27h-109v-109q0 2 9.5 6t23 9t19.5 10l-10 40l57 18
l48 -117l-70 -30l-13 47q-77 -60 -211 -56q-25 -1 -43.5 7t-28.5 20t-15.5 29t-6.5 31t-0.5 29.5t1.5 21t2 8.5l3 9h86q0 -8 -2 -25.5t-1.5 -28t5.5 -18.5q12 -18 38 -20v-4v123h-136v27h136v55h-22q-4 -5 -9 -9.5t-9 -8.5t-8 -8.5t-7 -8.5l-7 -6l-5 -6l-5 -4q-2 -2 -2 -3
l-1 -1l-38 33q32 34 70 103q-20 -9 -41 -18q-23 -29 -48 -54l-9 5q-9 5 -22.5 13t-20 11.5t-10.5 5.5q29 25 54 68.5t36 72.5t11 32l89 -25q-7 -18 -23 -44q73 20 133.5 27.5t98.5 4.5t67.5 -14.5t43.5 -23.5t23.5 -27t11 -20.5t1.5 -8.5q1 -3 1.5 -7.5t2.5 -19.5t4 -32
t3 -43t1 -53.5t-1.5 -63t-5.5 -72.5z" />
    <glyph glyph-name="uniE6A8" unicode="&#xe6a8;" 
d="M512 832q-91 0 -174 -35.5t-143 -95.5t-95.5 -143t-35.5 -174t35.5 -174t95.5 -143t143 -95t174 -35q52 0 102.5 11.5t94.5 33.5t83 52.5t69.5 69.5t52.5 83t33.5 94.5t11.5 102.5q0 73 -22.5 141.5t-64 123.5t-96.5 96.5t-123 64t-141 22.5zM248 633q8 14 23 22t29 8
t28.5 -8t23 -22.5t8.5 -29.5q-1 -17 -8 -30q-8 -14 -22 -22.5t-30 -7.5q-8 0 -15.5 2t-14.5 6q-14 8 -22 22t-8 30q0 5 1 10t3 10zM350 131l-97 -45v227h97v-182zM352 399q-4 -7 -9.5 -12.5t-12.5 -9.5q-5 -3 -10 -4.5t-10 -2.5t-10 -1q-16 0 -30 8t-22 22q-4 7 -6 14.5
t-2 15.5q0 16 8 30t23 22q5 2 9.5 4t9.5 3t10 1q7 0 14.5 -2t14.5 -6q14 -8 23 -22q4 -7 6 -14.5t2 -15.5q0 -16 -8 -30zM481 128l-96 -45v572h409l-32 -67h-281v-460zM498 463v63h94v39h94v-39h100l-29 -63h-71v-56h107l-29 -63h-274v63h102v56h-94zM765 97h-276v63h103v57
h-96v63h96v45h94v-45h103l-29 -63h-74v-57h109z" />
    <glyph glyph-name="uniE6AA" unicode="&#xe6aa;" horiz-adv-x="1025" 
d="M1024 702q-58 -26 -121 -34q33 20 57 50t36 67q-63 -37 -134 -51q-62 66 -153 66q-57 0 -105.5 -28t-76.5 -76.5t-28 -105.5q0 -8 0.5 -16t2 -16t2.5 -16q-129 7 -241.5 65t-191.5 155q-13 -24 -20.5 -51t-7.5 -55q0 -36 11.5 -69t32.5 -60t49 -46q-50 2 -95 26v-2
q0 -76 48 -134t121 -72q-27 -8 -56 -8q-5 0 -10 1h-10q-5 1 -9.5 1.5t-9.5 1.5q20 -63 74 -103.5t122 -42.5q-36 -28 -77.5 -48t-88 -31t-95.5 -11q-25 0 -50 3q147 -94 322 -94q112 0 210 35.5t168 95t120.5 136.5t75 161.5t24.5 169.5q0 14 -1 27q8 5 15.5 11t14.5 12
l14 14q7 6 13.5 12.5t13 14t12 14.5t11.5 15t11 16z" />
    <glyph glyph-name="uniE6AB" unicode="&#xe6ab;" 
d="M512 -128q139 0 257 68.5t186.5 186.5t68.5 257t-68.5 257t-186.5 186.5t-257 68.5t-257 -68.5t-186.5 -186.5t-68.5 -257t68.5 -257t186.5 -186.5t257 -68.5zM361.5 515q43.5 -22 89 -33.5t69.5 -12.5l23 -1l-3 12q-1 8 -1.5 29.5t4.5 40.5t22 41t44 36t54 15.5t46 -6
t34.5 -17t22.5 -17.5l8 -8q17 4 29 9l6 2q3 1 6 2.5t6 2.5t5.5 2t4 2t2.5 1l1 1l-30 -54l47 5q-6 -8 -25 -25l-10 -10l-7 -7l-5 -5l-3 -3l-1 -1q-1 -3 0 -14.5t-2 -38.5t-8.5 -55t-19 -63t-33.5 -63q-36 -52 -77.5 -88t-95 -59t-117.5 -29q-119 -12 -210 37l-6 3q57 3 93 17
t89 51q-74 23 -101 49q-8 7 -14 14t-9.5 11.5t-6 8t-3.5 5.5l-1 2l74 1q-78 41 -99 73q-10 15 -16.5 31t-7.5 25l-1 8l56 -22l-28 45q-22 40 -25 68q-3 25 -1 42t5 26l4 9q3 -5 9.5 -14t38 -34t75 -47z" />
    <glyph glyph-name="uniE6AC" unicode="&#xe6ac;" 
d="M830 620q68 -56 103 -126.5t33 -152.5q-2 -85 -34 -156.5t-88.5 -125.5t-134.5 -86t-173.5 -38.5t-179 18t-147.5 74t-102 119.5t-42 155q-4 63 14 116t48.5 97.5t66.5 80t70 60.5q59 44 36 117q-4 13 -9.5 24.5t-11 20t-8 15.5t0.5 10q3 4 18 -1t34 -14.5t39.5 -20
t34.5 -20.5q19 -11 35 -18.5t33 -12.5t38 -10.5t50 -12.5q36 -9 73 -19t72 -23t68.5 -30t62.5 -40zM592 246q12 1 23 12.5t17.5 30t8.5 43t-2 52.5q-10 65 -34.5 98.5t-51.5 30.5q-21 -3 -32.5 -28.5t-10.5 -67.5q27 -6 48 -10q19 -5 34.5 -8t17.5 -3q8 -2 2 -6l-14 -14
q-13 -14 -28 -29l-39 -41q12 -30 27.5 -46t33.5 -14zM849 293q20 5 35 38t9 94q-3 26 -9 49t-15.5 39.5t-20.5 26t-23 7.5q-21 -4 -31.5 -34t-10.5 -67q24 -4 42 -8q17 -3 30 -5t15 -2q7 -2 2 -6l-13 -13q-11 -11 -25 -23q-17 -14 -36 -33q9 -30 22 -48.5t29 -14.5z" />
    <glyph glyph-name="uniE6AD" unicode="&#xe6ad;" 
d="M1018 394q-2 99 -42 190t-106.5 157.5t-157.5 106.5t-190 42q-106 2 -202.5 -38t-166 -109.5t-109.5 -166t-38 -202.5q2 -99 42 -190t106.5 -157.5t157.5 -106.5t190 -42q106 -2 202.5 38t166 109.5t109.5 166t38 202.5zM313 361q20 0 45 7.5t47 19t31 22.5q7 8 -7 10
l-22 3q-31 2 -44.5 14.5t-19.5 43.5q-6 27 -5.5 65t6.5 49t19 12.5t18 -7.5q2 -3 3.5 -19t2.5 -37q0 -15 0.5 -24t2.5 -18.5t4 -13.5t8 -8.5t12 -6t18.5 -2.5t24.5 -1t32 1q17 1 42 1.5t41.5 1t23.5 1.5q32 0 44 14.5t8 49.5q-4 32 -12 47t-25 21q-16 7 -83 8.5t-102 -4.5
q-32 -4 -34 1l-1 11q0 15 7.5 21t32.5 11q27 6 93.5 5t89.5 -7t34.5 -11t21.5 -15.5t15 -25t12 -42.5q5 -21 6 -35t-1 -26.5t-8 -27.5q-10 -24 -34.5 -32t-85.5 -8q-49 1 -59 -1.5t-19 -15.5q-10 -17 -43.5 -43t-52.5 -33q-116 -42 -126 -9q-5 16 5.5 24.5t33.5 8.5z
M429 556q8 9 80 8h15q56 -1 65 -3t7 -15v-3l-2 -18h-83q-56 0 -70 2t-16 10q-2 11 4 19zM471 169q-20 -14 -48.5 -28.5t-54.5 -23.5t-39 -9q-20 0 -27.5 11t1.5 24t30 19q107 29 240 134q27 21 34.5 23.5t15.5 -7.5q7 -9 -2 -19q-10 -11 -52 -48q-38 -33 -38 -42
q0 -8 -12 -8t-48 -26zM753 259q-2 -31 -12.5 -50.5t-35.5 -42.5q-40 -36 -87.5 -51t-66.5 2q-12 12 -20 32t-4 29q1 5 3.5 6.5t6.5 0t14 -7.5q32 -16 71.5 -1t65.5 53t17 72t-45 34q-9 0 -14.5 1.5t-9 5.5t-7.5 11q-9 20 -27 20.5t-39 -17.5q-100 -86 -182.5 -128
t-103.5 -17q-6 9 -6.5 15t7.5 12t24.5 12t44.5 15q10 2 22.5 7.5t27 13.5t31 18t33.5 21q50 33 62 44t10 22q-4 17 12 23q15 6 32 3h5q3 0 6 -0.5t6.5 -1t7.5 -1t7.5 -1t8 -1t7.5 -0.5q58 -7 95.5 -52t32.5 -101z" />
    <glyph glyph-name="uniE6AE" unicode="&#xe6ae;" 
d="M389 796q-38 -8 -49.5 -17t-11.5 -32q0 -19 7 -21.5t47 3.5q34 5 95 6t115.5 -2.5t69.5 -9.5q13 -5 22.5 -13t16 -20t11 -29t6.5 -41q6 -53 -12 -76t-66 -23q-11 0 -36 -0.5t-63.5 -2t-62.5 -2.5q-25 0 -40.5 -0.5t-32.5 0t-26 1.5t-19.5 4.5t-15 6.5t-9.5 11t-6.5 14.5
t-3.5 19.5t-2.5 24.5t-0.5 30.5q-2 74 -8 85q-9 13 -28.5 10.5t-28.5 -18.5q-5 -11 -7.5 -42t-1 -68t6.5 -63q9 -48 29.5 -67t68.5 -22q49 -4 48 -12l-4 -8q-22 -26 -82 -50t-104 -24q-36 0 -52 -13t-8 -37q15 -50 191 13q29 11 79.5 51t66.5 65q7 12 11.5 16t16.5 8t32 2.5
t58 0.5q93 -1 130 11t52 49q14 33 15 60.5t-11 74.5q-7 28 -12 45.5t-12.5 33t-15 24t-20.5 16.5t-27.5 13t-37.5 11q-34 9 -135.5 10t-142.5 -7zM386 646q-9 -13 -6 -30q3 -13 24 -16t106 -3l126 1l3 28q1 1 1 4q3 20 -11 23t-98 4h-24q-110 1 -121 -11v0zM562 429
q-14 -5 -18 -12.5t-1 -21.5q3 -17 -14.5 -33.5t-93.5 -66.5q-21 -14 -41.5 -27t-39 -23t-35.5 -18.5t-31 -14.5t-26 -9q-43 -13 -68 -22t-37.5 -18.5t-12 -19t11.5 -21.5q32 -38 156.5 25t276.5 194q33 28 60 27t41 -31q8 -16 17.5 -22t29.5 -6q21 0 37 -9t24 -25.5
t9.5 -36.5t-6 -43.5t-22.5 -46.5q-39 -57 -99 -79.5t-108 1.5q-15 8 -21.5 10.5t-10 0.5t-6.5 -10q-6 -14 6.5 -44t31.5 -48q28 -26 100 -3t132 77q39 35 54.5 65t19.5 77q7 85 -50 153t-144 78q-68 8 -73 8q-26 4 -49 -5v0zM604 250q-103 -81 -191.5 -130.5t-172.5 -72.5
q-32 -9 -45.5 -29t-2 -36.5t42.5 -16.5q29 0 98.5 30t115.5 62q23 16 45 28t29 12t12 4t5 9q0 13 58 64q71 61 82 74.5t1 26.5q-12 15 -24 11t-53 -36z" />
    <glyph glyph-name="uniE6AF" unicode="&#xe6af;" 
d="M949 505l1 -30q-102 5 -143 89q-6 0 -12 2t-11 5.5t-8.5 8t-6 10.5t-2.5 12q-1 11 4 21t14.5 15.5t20.5 6.5q16 1 28.5 -10.5t13.5 -28.5q1 -22 -17 -35q36 -61 118 -66zM812 505q12 0 23 4l-27 24q-19 0 -35 9t-25.5 24t-10.5 34q-1 29 18.5 51t48.5 23t51 -18.5
t23 -48.5q1 -16 -4.5 -29.5t-16.5 -24.5l21 -19q32 31 30 76q-2 41 -33 69t-72 26q-27 -1 -49.5 -15.5t-35 -38.5t-11.5 -51q2 -41 33 -69t72 -26zM134 331l56 84q-10 77 36 139.5t123 75.5q79 14 144.5 -32t79.5 -125q9 -52 -8.5 -100.5t-57 -81.5t-91.5 -42
q-85 -15 -153 38l-45 -64q45 -35 101 -49.5t115 -4.5q112 20 177.5 113t45.5 205q-13 74 -60 130t-116 81.5t-142 12.5q-113 -20 -178 -113t-46 -206q6 -30 19 -61zM155 7q-29 218 147 359q19 -22 46 -31.5t56 -4.5q12 2 24 7t22 12.5t18 16.5t14 20t9.5 23t4 24.5
t-1.5 25.5q-8 46 -45.5 72.5t-83.5 18.5q-29 -5 -51 -23.5t-32.5 -45t-7.5 -55.5q-212 -141 -193 -419h74z" />
    <glyph glyph-name="uniE6B0" unicode="&#xe6b0;" horiz-adv-x="1025" 
d="M512 896q-139 0 -257 -68.5t-186.5 -186.5t-68.5 -257t68.5 -257t186.5 -186.5t257 -68.5t257 68.5t186.5 186.5t68.5 257t-68.5 257t-186.5 186.5t-257 68.5zM247 89q0 -5 -2 -8.5t-5 -5t-6 -1.5q-5 0 -10 4t-6 11q-14 76 15 176q8 28 20.5 55.5t24.5 46t23.5 33
t18 21.5t6.5 8q-5 11 -5 23q0 16 8 30t22 21.5t31 7.5q10 0 19 -3t16.5 -8.5t13 -12.5t8 -16t2.5 -19q0 -13 -4.5 -24t-12.5 -19t-19 -13t-23 -5q-11 0 -19.5 2.5t-16.5 7.5q-1 1 -7 -5.5t-15.5 -20t-20.5 -30.5t-22 -41.5t-19 -48.5q-10 -34 -13 -69t-2 -63.5t0 -33.5z
M560 437q-2 -26 -13 -54t-31.5 -55t-56.5 -44t-80 -17q-24 0 -41 5.5t-11 19.5q3 7 11.5 9.5t16 2t15.5 -1.5l9 -2q60 0 102.5 44t44.5 93q1 16 -2 33t-9.5 35t-18.5 33.5t-28 28t-39 20t-50 7.5q-23 0 -43.5 -5.5t-35.5 -15t-27 -22.5t-19.5 -27.5t-13 -30t-7.5 -29.5
t-2 -27q0 -9 3 -20t6 -19.5t5.5 -16.5t1.5 -13.5t-6 -8.5q-1 -1 -3 -1.5t-4 -0.5q-6 0 -12.5 5.5t-12 15.5t-9 25.5t-3.5 33.5q0 48 19.5 90.5t63 71t102.5 28.5q44 0 80 -18.5t57 -47t31.5 -61t9.5 -63.5zM723 486q-1 -8 -9 -8h-3q-9 0 -19 1.5t-27.5 9.5t-30.5 22
q-11 11 -17.5 26.5t-7.5 33.5t2.5 35.5t15.5 33.5t31 27q23 13 46.5 14t42 -7t32 -19t20.5 -23q20 -38 12 -75l-19 -40q-3 -4 -7 -4.5t-7 2.5v-1v1q-7 7 -1 13q4 2 12 20q7 13 4.5 39.5t-16.5 41.5q-48 55 -108 21q-22 -11 -34.5 -35.5t-6.5 -52.5q3 -14 10.5 -26t16 -18.5
t14.5 -10t11 -5.5q8 -3 16 -5t12 -2h4q4 -1 7 -3.5t4 -5.5v2v-4v2zM861 410q-2 0 -6.5 1t-13.5 4.5t-19 8.5t-23 14t-26 19q-9 8 -17.5 17.5t-15 18t-11.5 17t-9 15t-6.5 12t-3.5 8.5l-1 3q-8 0 -15.5 4.5t-12.5 11.5t-5 14t1.5 13t5 11.5t10.5 8.5t16 3q17 0 25.5 -11
t8.5 -25q0 -16 -14 -25l1 -5q1 -4 5 -13t9.5 -19t15.5 -22t22 -22q15 -14 39 -28t38 -18q8 -3 8.5 -7t-2.5 -6.5t-4 -2.5z" />
    <glyph glyph-name="uniE6B1" unicode="&#xe6b1;" horiz-adv-x="1025" 
d="M320 588q-9 0 -18 -4t-15 -12t-6 -17q0 -14 12 -23.5t27 -9.5t24 9t9 24q0 7 -2.5 13.5t-6.5 10.5t-10 6.5t-14 2.5zM502 522q4 0 8 1t7 2.5t6 3.5t5 4.5t3.5 6t2.5 7.5t1 8q0 15 -9 24t-24 9q-7 0 -14 -2.5t-12.5 -6.5t-9 -10.5t-3.5 -13.5q0 -14 12 -23.5t27 -9.5z
M512 896q-139 0 -257 -68.5t-186.5 -186.5t-68.5 -257t68.5 -257t186.5 -186.5t257 -68.5q104 0 199 40.5t163.5 109t109 163.5t40.5 199q0 188 -122 332q-116 136 -292 171q-49 9 -98 9zM405 252q-7 0 -13.5 0.5t-13.5 1t-12.5 1.5t-13 2.5t-12 2.5t-13 2.5t-13.5 2.5
l-91 -46l26 79q-104 74 -104 178q0 61 35 113t94.5 81.5t130.5 29.5q96 0 170.5 -53t91.5 -132q-4 0 -8 0.5t-9 0.5h-8q-92 0 -156.5 -60.5t-64.5 -147.5q0 -9 1 -18.5t2.5 -18.5t4.5 -18q-12 -1 -24 -1zM788 160l20 -66l-72 39q-52 -13 -78 -13q-45 0 -86 15t-70.5 41
t-47 61t-17.5 74t17.5 74.5t47 61t70.5 40.5t86 15q89 0 155 -56.5t66 -134.5q0 -82 -91 -151zM730 397q-10 0 -18 -8.5t-8 -17.5q0 -7 3.5 -13t9.5 -10t13 -4q14 0 23 8t9 18.5t-9 18.5t-23 8zM587 397q-10 0 -18 -8.5t-8 -17.5q0 -7 3.5 -13t9.5 -10t13 -4q5 0 10.5 1.5
t9.5 4t6.5 6t4 7.5t1.5 8q0 10 -9 18t-23 8z" />
    <glyph glyph-name="uniE6B2" unicode="&#xe6b2;" 
d="M684 532q14 0 32 -2q-22 99 -115.5 164t-214.5 65q-66 0 -126 -21.5t-104 -58.5t-70 -88.5t-26 -108.5q0 -129 131 -221l-33 -98l114 58q84 -17 114 -17q17 0 31 2q-10 33 -10 68q0 70 36.5 129.5t100.5 94t140 34.5zM509 620q12 0 21 -5t14 -14t5 -21q0 -19 -11 -30
t-29 -11q-20 0 -35 11.5t-15 29.5q1 17 16 28.5t34 11.5zM280 539q-19 0 -34 11.5t-15 29t15 29t34 11.5t30 -11t11 -29q0 -12 -5 -21.5t-14.5 -14.5t-21.5 -5zM982 278q0 97 -83 166.5t-194 69.5q-116 0 -197 -69t-81 -167q0 -99 81 -168t197 -69q15 0 34 3t30 5.5t34 7.5
l89 -49l-24 82q114 86 114 188zM615 318q-12 0 -22.5 10.5t-10.5 22.5t10.5 22t22.5 10q9 0 16.5 -2.5t13 -7t8.5 -10.5t3 -12q0 -13 -12 -23t-29 -10zM794 318q-12 0 -22 10.5t-10 22.5t10 22t22 10q9 0 17 -2.5t13 -7t8 -10.5t3 -12q0 -5 -2 -9.5t-5.5 -9t-8.5 -7.5
t-11.5 -5t-13.5 -2z" />
    <glyph glyph-name="uniE6B3" unicode="&#xe6b3;" 
d="M893.5 662.5q-48.5 48.5 -113.5 66t-130 0t-114 -65.5l-25 -25l-25 25q-48 48 -113 65.5t-130 0t-114 -65.5q-74 -74 -74 -178.5t74 -178.5l25 -25l357 -304l357 304l25 25q49 48 66 113t0 130t-65.5 113.5z" />
    <glyph glyph-name="uniE6B4" unicode="&#xe6b4;" 
d="M522 867q-79 0 -153 -24t-134 -69t-104.5 -104.5t-69 -133.5t-24.5 -153q0 -99 38.5 -189t103 -155t154.5 -103t188.5 -38t188.5 38t155 103t103.5 155t38.5 189q0 65 -17.5 128t-49 116.5t-76 98t-98 76t-116 48.5t-128.5 17zM789 59q-47 -21 -103.5 -27t-110.5 2
t-92 17t-73 22q-87 27 -150 96h-1l-2 1h2q-85 95 -85 224q0 91 45 168.5t122 122.5t168.5 45t169 -45t122.5 -122.5t45 -168.5q0 -88 -42.5 -163.5t-113.5 -120.5q24 -31 99 -51zM676 344l4 16q2 8 2.5 17t0.5 17q0 72 -50.5 123t-122.5 51t-122.5 -51t-50.5 -123
q0 -46 22 -85t60 -62h-1q-21 -36 -56.5 -57.5t-78.5 -21.5q-6 0 -11.5 0.5t-12.5 1.5h1q0 -1 1 -1q30 -17 64.5 -25.5t70.5 -8.5q49 0 94.5 15.5t81.5 43.5t63 66.5t41 83.5z" />
    <glyph glyph-name="uniE6B5" unicode="&#xe6b5;" 
d="M954 387q0 91 -35.5 173.5t-95 142t-142 95t-173 35.5t-173 -35.5t-142 -95t-95 -142t-35.5 -173.5q0 -156 97.5 -277t246.5 -156q16 -5 31 -8.5t30 -5.5q227 -27 378 34q-41 12 -94 41q93 61 147.5 159t54.5 213zM708 322q-16 -50 -47 -89q-37 -49 -84 -83t-108.5 -54.5
t-139.5 -17t-167 32.5q3 -1 7.5 -2t19 -1.5t29 0.5t36 7.5t41.5 17.5t43 31.5t44 48.5q-50 30 -79 79.5t-29 108.5q0 92 66 156.5t159 64.5t158.5 -64.5t65.5 -156.5q0 -41 -15 -79z" />
    <glyph glyph-name="uniE6B6" unicode="&#xe6b6;" 
d="M509 866q-98 0 -187.5 -38t-154 -102.5t-102.5 -154t-38 -187.5t38 -187.5t102.5 -154t154 -102.5t187.5 -38t187 38t154 102.5t103 154t38 187.5t-38 187.5t-103 154t-154 102.5t-187 38zM203 571q10 34 44 41q11 2 28 2h234h75h88h76q15 0 26.5 -3t21.5 -11.5t16 -21.5
q7 -19 -9 -30q-117 -73 -281 -178q-7 -5 -13 -5t-14 5q-128 83 -284 180q-12 8 -8 21zM815 504v-252q-85 54 -198 126q17 11 39 25t40.5 26t38.5 24.5t40.5 25.5t39.5 25zM401 378l-99 -63q-66 -42 -100 -64v254q58 -37 199 -127zM814 181q-14 -38 -64 -39h-242h-60h-62h-59
h-61q-50 1 -63 42q-4 14 8 21q27 18 103.5 66t118.5 74q2 1 6 1.5t7.5 0t6.5 -1.5q10 -6 21 -12.5t23 -15.5q12 -8 23 0q7 5 22 14t22 14q10 7 22 0q58 -37 112 -71.5t107 -67.5q8 -5 10 -11t-1 -14z" />
    <glyph glyph-name="uniE6B7" unicode="&#xe6b7;" 
d="M512 729h349q22 0 39 -4.5t32 -16.5t24 -32q4 -10 4.5 -17t-4 -13.5t-14.5 -12.5q-96 -60 -196 -123.5t-214 -136.5q-8 -5 -14 -6.5t-12 0t-14 6.5q-184 118 -415 263q-17 11 -12 30q8 24 24 39t40 20q17 4 42 4h341zM511 40h-70h-73h-68h-74h-69q-73 0 -91 61
q-6 20 11 31q40 25 151.5 95t172.5 108q5 4 14 4t15 -4q27 -13 65 -40q17 -12 33 0q9 6 21 13t23.5 14.5t20.5 13.5q3 3 6.5 4t6.5 1.5t6.5 0t6.5 -2t7 -4.5q180 -115 319 -201q21 -14 12 -38q-19 -56 -92 -56h-354zM64 569q254 -161 291 -185q-42 -26 -93 -59t-104.5 -67
t-93.5 -59v370zM960 569v-369q-44 27 -92 58t-107 68t-91 58q6 4 290 185z" />
    <glyph glyph-name="uniE6B8" unicode="&#xe6b8;" 
d="M579 245l-80 -60l-11 -8q-11 -5 -21.5 -10.5t-19.5 -9t-18 -6.5q-27 -8 -47 -10.5t-34 -2.5h-1q-1 -1 -2 -1h-10q-34 0 -64.5 8.5t-53.5 24.5t-36 40t-13 56q0 4 0.5 8t1 7.5t1.5 7.5t2 7.5t2.5 7t3.5 6.5t4 7q14 22 37 38t51 24t57 7q27 -2 53 -7t49.5 -12.5t44.5 -16.5
t40 -17q4 -2 8 -3.5t8 -2.5q8 -4 17 -7q18 24 30.5 46t21 40.5t12.5 31t6 18.5h-273v30h129v70h-180v30h180v56q0 3 1.5 5.5t4.5 4.5q6 3 14 4q5 1 10.5 1.5t11.5 0.5h48v-72h185v-30h-185v-70h147v0v0q-3 -14 -6.5 -29t-8.5 -30q-9 -27 -26.5 -62t-45.5 -71q16 -8 44.5 -20
t106.5 -37.5t146 -36.5q39 88 39 185q0 73 -22.5 141t-64 123.5t-96.5 96.5t-123.5 64t-141.5 23q-91 0 -174 -35.5t-143 -95.5t-95.5 -143t-35.5 -174.5t35.5 -174.5t95.5 -143t143 -95.5t174 -35.5q75 0 145.5 24.5t127 68t97.5 102.5q-58 13 -125 38.5t-178 75.5z
M226 265q0 -22 9 -38t21 -24.5t28 -13.5t25 -6t16 -1q52 -2 108 32q5 3 10 6.5t10.5 7.5t10.5 8l12 10q5 4 9.5 8t8.5 8t7 6.5t5 4.5l2 2q3 2 5 4q-6 4 -12 7l-12 6l-12 6q-80 39 -124 43q-19 2 -34.5 1t-27.5 -5t-22 -9t-17 -12t-12 -14t-8 -14t-4.5 -12.5t-1.5 -10.5z" />
    <glyph glyph-name="uniE6B9" unicode="&#xe6b9;" horiz-adv-x="1037" 
d="M666 282q31 56 55 118.5t32 96.5l9 34h-13h-109h-115v90h281v38h-281v135h-128v-135h-256v-38h256v-90h-218v-38h442q-2 -8 -7 -13q0 -21 -10 -52t-19.5 -51.5t-27.5 -56.5q-48 19 -91.5 32.5t-78 22t-66.5 12.5t-55 5.5t-46 -0.5t-36.5 -4.5t-28.5 -7.5t-21 -8t-15.5 -8
t-9.5 -6q-134 -94 -88 -219q23 -65 76 -105q21 -16 31 -15q286 -63 480 167q4 -5 8.5 -6t10.5 -1q31 -17 133.5 -66.5t189.5 -90.5l87 -41v192q-9 0 -21.5 2t-31.5 6.5t-36 9t-43.5 13t-45 14t-49.5 16.5l-48 16q-17 5 -50.5 16t-45.5 16zM499 224q-33 -42 -70 -72
t-70 -45.5t-68 -23t-61.5 -7.5t-52.5 4t-39 8t-23 8q-22 6 -39 24.5t-23.5 43.5t-5 51t17.5 49.5t44 36.5q46 15 94 18.5t87 -1.5t82 -18t73.5 -26t66.5 -31z" />
    <glyph glyph-name="uniE6BB" unicode="&#xe6bb;" 
d="M419 359zM512 824q-89 0 -170.5 -35t-140.5 -94t-94 -140.5t-35 -170.5t35 -170.5t94 -140.5t140.5 -94t170.5 -35t170.5 35t140.5 94t94 140.5t35 170.5t-35 170.5t-94 140.5t-140.5 94t-170.5 35zM277 614q5 8 15 8h44h170q3 0 5.5 -0.5t5 -1.5t4 -2.5t2.5 -3.5
t1.5 -4.5t0.5 -5.5v-158v-159q-2 -17 -18 -18h-25q-19 0 -19 18v211v51q0 6 -2.5 8.5t-8.5 2.5h-105q-12 0 -12 -12v-257q0 -22 -17 -22q-3 0 -11.5 0.5t-13.5 0.5q-16 -1 -16 17v67v146v102v12zM525 160q0 -5 -2 -8.5t-6 -5.5t-9 -2q-64 6 -106 56q0 1 -1 1q-1 1 -1 2
q-1 -1 -3 -4l-6 -6q-16 -17 -34.5 -28t-40.5 -16q-13 -3 -27 -4q-3 0 -6 1.5t-5 4.5t-3 6v5v6v5v5v6v5v5q1 7 4.5 11t11.5 6q50 13 69 59q8 25 8 37v69v82v69q0 6 2.5 7.5t8.5 1.5h42q7 0 8.5 -2t1.5 -8v-54v-57v-53v-56q0 -29 18 -55q21 -31 58 -40q4 -1 6 -2q12 -4 12 -16
v-33zM787 544q0 -17 -17 -17h-120q-3 0 -6 -3t-2 -5q0 -16 1 -49t1 -51q0 -4 6 -4h35h41h36q4 0 7 -1t5 -3t3 -5t1 -7v-49v-50v-48v-50v-48q0 -17 -16 -17h-191q-6 0 -10.5 3t-7.5 7.5t-3 10.5v241q0 16 19 16h10q4 -1 4 4v17v20v17q1 15 1 46v91q0 9 5.5 15t14.5 6h21
q19 0 19 -19q0 -3 0.5 -6t1 -6.5t0.5 -6.5q0 -4 4 -4h60h60q17 0 17 -21v-24zM612 340v-128q0 -12 13 -12h79q12 0 12 12v65v16v16v15v16q0 6 -3 9.5t-9 3.5h-79q-5 0 -9 -3.5t-4 -9.5z" />
  </font>
</defs>
</svg>
